<svg xmlns="http://www.w3.org/2000/svg" width="249" height="44" viewBox="0 0 249 44" preserveAspectRatio="xMidYMid meet"><defs><style>.a{fill:#333;}.b{fill:#2baadd;}</style></defs><title>NewYorkISOlogo-mainweb</title><path class="a" d="M52.2681,39.9961H50.8862V29h1.3818Z"/><path class="a" d="M55.13,31.8252l.0381.8828a2.3851,2.3851,0,0,1,1.9863-1.0342q2.1672,0,2.1973,2.8926v5.43H58.0229V34.627a2.2277,2.2277,0,0,0-.3208-1.3633,1.1557,1.1557,0,0,0-.9629-.4043,1.36,1.36,0,0,0-.895.332,2.4,2.4,0,0,0-.6382.8691v5.9355H53.87V31.8252Z"/><path class="a" d="M60.7026,35.54a4.9235,4.9235,0,0,1,.7061-2.877,2.3407,2.3407,0,0,1,2.0278-.9893,2.1,2.1,0,0,1,1.8276.9512V28.3965h1.3369v11.6H65.3774L65.31,39.12a2.1043,2.1043,0,0,1-1.88,1.0273,2.33,2.33,0,0,1-1.99-.9863,4.7163,4.7163,0,0,1-.7363-2.7822Zm1.3369.7588a3.8728,3.8728,0,0,0,.4077,2.0176,1.4517,1.4517,0,0,0,1.3291.6455,1.5822,1.5822,0,0,0,1.4878-1.0039V33.84a1.6077,1.6077,0,0,0-1.48-.98,1.4526,1.4526,0,0,0-1.3291.6445,3.8256,3.8256,0,0,0-.4155,1.98Z"/><path class="a" d="M71.0366,40.1475a2.9821,2.9821,0,0,1-2.3413-.91,3.9365,3.9365,0,0,1-.8306-2.67v-.9893a4.6051,4.6051,0,0,1,.7969-2.8662,2.6433,2.6433,0,0,1,2.2241-1.0381,2.5462,2.5462,0,0,1,2.1445.9141,4.6968,4.6968,0,0,1,.7251,2.8467v.876H69.1938V36.5a2.98,2.98,0,0,0,.4946,1.91,1.7462,1.7462,0,0,0,1.4238.5967,2.3083,2.3083,0,0,0,1.0381-.2227,2.5752,2.5752,0,0,0,.8423-.7061l.6948.8457A3.0335,3.0335,0,0,1,71.0366,40.1475Zm-.1509-7.3262a1.4014,1.4014,0,0,0-1.231.57,3.3846,3.3846,0,0,0-.4531,1.7715h3.2168v-.1816A3.12,3.12,0,0,0,72,33.32,1.2924,1.2924,0,0,0,70.8857,32.8213Z"/><path class="a" d="M80.9521,36.3027a4.8909,4.8909,0,0,1-.6982,2.8926,2.3057,2.3057,0,0,1-1.9751.9521,2.1891,2.1891,0,0,1-1.8955-.93v3.92H75.0542V31.8252h1.2085l.0679.9062a2.15,2.15,0,0,1,1.9258-1.0576,2.3008,2.3008,0,0,1,2.0088.9365,4.9541,4.9541,0,0,1,.687,2.8018ZM79.623,35.54A3.8113,3.8113,0,0,0,79.2,33.5127a1.4986,1.4986,0,0,0-1.3594-.6533,1.5749,1.5749,0,0,0-1.4575.959V38.07a1.5769,1.5769,0,0,0,1.4727.9365,1.4787,1.4787,0,0,0,1.333-.6533,3.7519,3.7519,0,0,0,.4341-1.9971Z"/><path class="a" d="M85.38,40.1475a2.9821,2.9821,0,0,1-2.3413-.91,3.9365,3.9365,0,0,1-.8306-2.67v-.9893a4.6051,4.6051,0,0,1,.7969-2.8662,2.6433,2.6433,0,0,1,2.2241-1.0381,2.5462,2.5462,0,0,1,2.1445.9141,4.6968,4.6968,0,0,1,.7251,2.8467v.876H83.5376V36.5a2.98,2.98,0,0,0,.4946,1.91,1.7462,1.7462,0,0,0,1.4238.5967,2.3083,2.3083,0,0,0,1.0381-.2227,2.5752,2.5752,0,0,0,.8423-.7061l.6948.8457A3.0335,3.0335,0,0,1,85.38,40.1475Zm-.1509-7.3262a1.4014,1.4014,0,0,0-1.231.57,3.3846,3.3846,0,0,0-.4531,1.7715h3.2168v-.1816a3.12,3.12,0,0,0-.4189-1.6611A1.2924,1.2924,0,0,0,85.2295,32.8213Z"/><path class="a" d="M90.9614,31.8252,91,32.708a2.3851,2.3851,0,0,1,1.9863-1.0342q2.1672,0,2.1973,2.8926v5.43H93.854V34.627a2.2277,2.2277,0,0,0-.3208-1.3633,1.1557,1.1557,0,0,0-.9629-.4043,1.36,1.36,0,0,0-.895.332,2.4,2.4,0,0,0-.6382.8691v5.9355H89.7007V31.8252Z"/><path class="a" d="M96.5024,35.54a4.9235,4.9235,0,0,1,.7061-2.877,2.3407,2.3407,0,0,1,2.0278-.9893,2.1,2.1,0,0,1,1.8276.9512V28.3965h1.3369v11.6h-1.2236l-.0679-.876a2.1043,2.1043,0,0,1-1.88,1.0273,2.33,2.33,0,0,1-1.99-.9863,4.7163,4.7163,0,0,1-.7363-2.7822Zm1.3369.7588a3.8728,3.8728,0,0,0,.4077,2.0176,1.4517,1.4517,0,0,0,1.3291.6455,1.5822,1.5822,0,0,0,1.4878-1.0039V33.84a1.6077,1.6077,0,0,0-1.48-.98,1.4526,1.4526,0,0,0-1.3291.6445,3.8256,3.8256,0,0,0-.4155,1.98Z"/><path class="a" d="M106.9292,40.1475a2.9821,2.9821,0,0,1-2.3413-.91,3.9365,3.9365,0,0,1-.8306-2.67v-.9893a4.6051,4.6051,0,0,1,.7969-2.8662,2.6433,2.6433,0,0,1,2.2241-1.0381,2.5462,2.5462,0,0,1,2.1445.9141,4.6968,4.6968,0,0,1,.7251,2.8467v.876h-4.5615V36.5a2.98,2.98,0,0,0,.4946,1.91,1.7462,1.7462,0,0,0,1.4238.5967,2.3083,2.3083,0,0,0,1.0381-.2227,2.5752,2.5752,0,0,0,.8423-.7061l.6948.8457A3.0335,3.0335,0,0,1,106.9292,40.1475Zm-.1509-7.3262a1.4014,1.4014,0,0,0-1.231.57,3.3846,3.3846,0,0,0-.4531,1.7715h3.2168v-.1816a3.12,3.12,0,0,0-.4189-1.6611A1.2924,1.2924,0,0,0,106.7783,32.8213Z"/><path class="a" d="M112.3706,31.8252l.0381.8828a2.3851,2.3851,0,0,1,1.9863-1.0342q2.1672,0,2.1973,2.8926v5.43h-1.3291V34.627a2.2277,2.2277,0,0,0-.3208-1.3633,1.1557,1.1557,0,0,0-.9629-.4043,1.36,1.36,0,0,0-.895.332,2.4,2.4,0,0,0-.6382.8691v5.9355H111.11V31.8252Z"/><path class="a" d="M120.2837,29.8467v1.9785h1.231v1.0791h-1.231v5.0742a1.3771,1.3771,0,0,0,.1587.7334.5938.5938,0,0,0,.5435.25,1.6843,1.6843,0,0,0,.5361-.0908l-.0151,1.126a2.9451,2.9451,0,0,1-.9287.15,1.407,1.407,0,0,1-1.2085-.5664,2.671,2.671,0,0,1-.415-1.6016V32.9043h-1.2461V31.8252h1.2461V29.8467Z"/><path class="a" d="M131.2939,37.2168a1.6894,1.6894,0,0,0-.4453-1.2607,4.5592,4.5592,0,0,0-1.6094-.8535,6.9806,6.9806,0,0,1-1.7773-.8721,3.0813,3.0813,0,0,1-.9219-1.043,3.0911,3.0911,0,0,1,.5664-3.4922,3.147,3.147,0,0,1,2.2852-.8457,3.401,3.401,0,0,1,1.7207.4316,2.95,2.95,0,0,1,1.1641,1.2,3.5552,3.5552,0,0,1,.4063,1.69h-1.3887a2.32,2.32,0,0,0-.49-1.5781,1.7832,1.7832,0,0,0-1.4121-.5586,1.7391,1.7391,0,0,0-1.3.4688,1.7968,1.7968,0,0,0-.46,1.3164,1.5352,1.5352,0,0,0,.498,1.165,4.4164,4.4164,0,0,0,1.541.84,5.3162,5.3162,0,0,1,2.3223,1.3223,2.9819,2.9819,0,0,1,.6973,2.0547,2.78,2.78,0,0,1-.8672,2.1406,3.3468,3.3468,0,0,1-2.3652.8047,3.789,3.789,0,0,1-1.77-.42,3.1625,3.1625,0,0,1-1.2764-1.1777,3.2666,3.2666,0,0,1-.4648-1.74h1.39a2.1334,2.1334,0,0,0,.57,1.5859,2.1048,2.1048,0,0,0,1.5508.5664,1.8465,1.8465,0,0,0,1.375-.4687A1.743,1.743,0,0,0,131.2939,37.2168Z"/><path class="a" d="M136.55,37.7754l1.4873-5.95h1.42l-2.6729,9.3262a3.6332,3.6332,0,0,1-.8535,1.5977,1.7341,1.7341,0,0,1-1.2539.5469,2.6468,2.6468,0,0,1-.6943-.12V42.043l.2939.03a1.37,1.37,0,0,0,.91-.2764,1.9606,1.9606,0,0,0,.5322-.9551l.2646-.9141-2.4014-8.1025h1.457Z"/><path class="a" d="M144.48,37.9043a.9852.9852,0,0,0-.3242-.74,4.81,4.81,0,0,0-1.2539-.7246,8.2376,8.2376,0,0,1-1.5215-.7627,2.1758,2.1758,0,0,1-.6611-.7217,1.9975,1.9975,0,0,1-.2187-.9629,2.1446,2.1446,0,0,1,.7285-1.6572,2.975,2.975,0,0,1,3.78.0332,2.3609,2.3609,0,0,1,.7246,1.7822h-1.3291a1.311,1.311,0,0,0-.37-.9395,1.2439,1.2439,0,0,0-.9434-.39,1.3282,1.3282,0,0,0-.9258.3057,1.05,1.05,0,0,0-.3359.8164.8941.8941,0,0,0,.2451.6553,4.379,4.379,0,0,0,1.1826.6553,5.9419,5.9419,0,0,1,2.0234,1.1377,1.95,1.95,0,0,1,.5361,1.4111,2.1493,2.1493,0,0,1-.7324,1.7051,2.8779,2.8779,0,0,1-1.9639.64,2.9266,2.9266,0,0,1-2.0684-.7324,2.4185,2.4185,0,0,1-.793-1.8584h1.3438a1.6027,1.6027,0,0,0,2.53,1.1514A1.0042,1.0042,0,0,0,144.48,37.9043Z"/><path class="a" d="M149.292,29.8467v1.9785h1.23v1.0791h-1.23v5.0742a1.3821,1.3821,0,0,0,.1582.7334.5957.5957,0,0,0,.5439.25,1.6843,1.6843,0,0,0,.5361-.0908l-.0146,1.126a2.9556,2.9556,0,0,1-.93.15,1.4072,1.4072,0,0,1-1.208-.5664,2.6745,2.6745,0,0,1-.415-1.6016V32.9043h-1.2461V31.8252h1.2461V29.8467Z"/><path class="a" d="M154.9082,40.1475a2.9824,2.9824,0,0,1-2.3418-.91,3.9314,3.9314,0,0,1-.83-2.67v-.9893a4.605,4.605,0,0,1,.7959-2.8662,2.6448,2.6448,0,0,1,2.2246-1.0381,2.5474,2.5474,0,0,1,2.1445.9141,4.6966,4.6966,0,0,1,.7256,2.8467v.876h-4.5615V36.5a2.9772,2.9772,0,0,0,.4941,1.91,1.7462,1.7462,0,0,0,1.4238.5967,2.31,2.31,0,0,0,1.0381-.2227,2.5739,2.5739,0,0,0,.8418-.7061l.6953.8457A3.0332,3.0332,0,0,1,154.9082,40.1475Zm-.1514-7.3262a1.404,1.404,0,0,0-1.2314.57,3.3892,3.3892,0,0,0-.4531,1.7715H156.29v-.1816a3.12,3.12,0,0,0-.4189-1.6611A1.2951,1.2951,0,0,0,154.7568,32.8213Z"/><path class="a" d="M160.333,31.8252l.03.7549a2.43,2.43,0,0,1,1.9717-.9062,1.9334,1.9334,0,0,1,1.91,1.1855,2.4248,2.4248,0,0,1,2.1445-1.1855q2.2588,0,2.3115,2.8164v5.5059h-1.3291v-5.377a2.254,2.254,0,0,0-.3174-1.3252,1.24,1.24,0,0,0-1.0723-.4346,1.2026,1.2026,0,0,0-.9824.4688,2.1332,2.1332,0,0,0-.4375,1.1924v5.4756h-1.3447V34.5586q-.022-1.6992-1.3818-1.6992a1.4526,1.4526,0,0,0-1.4268,1.0117v6.125H159.08V31.8252Z"/><path class="a" d="M180.7422,35.4648a5.4849,5.4849,0,0,1-.96,3.4668,3.2686,3.2686,0,0,1-2.7256,1.2158,3.3094,3.3094,0,0,1-2.6846-1.1826,5.2192,5.2192,0,0,1-1.0234-3.3418V33.5547a5.4893,5.4893,0,0,1,.9736-3.4551,3.25,3.25,0,0,1,2.7188-1.25,3.2924,3.2924,0,0,1,2.708,1.1963,5.4035,5.4035,0,0,1,.9932,3.418Zm-1.3828-1.9258a4.7043,4.7043,0,0,0-.57-2.5937,2.1915,2.1915,0,0,0-3.4736.0107,4.5663,4.5663,0,0,0-.5928,2.5381v1.9707a4.661,4.661,0,0,0,.585,2.5674,2.1981,2.1981,0,0,0,3.4707.0684,4.5841,4.5841,0,0,0,.5811-2.5Z"/><path class="a" d="M188.1475,36.3027a4.8873,4.8873,0,0,1-.6982,2.8926,2.3054,2.3054,0,0,1-1.9746.9521,2.1879,2.1879,0,0,1-1.8955-.93v3.92H182.25V31.8252h1.208l.0674.9062a2.1517,2.1517,0,0,1,1.9258-1.0576,2.299,2.299,0,0,1,2.0088.9365,4.946,4.946,0,0,1,.6875,2.8018Zm-1.3291-.7627a3.8067,3.8067,0,0,0-.4229-2.0273,1.5,1.5,0,0,0-1.3594-.6533,1.5732,1.5732,0,0,0-1.457.959V38.07a1.5759,1.5759,0,0,0,1.4727.9365,1.477,1.477,0,0,0,1.332-.6533,3.7422,3.7422,0,0,0,.4346-1.9971Z"/><path class="a" d="M192.4834,40.1475a2.9824,2.9824,0,0,1-2.3418-.91,3.9314,3.9314,0,0,1-.83-2.67v-.9893a4.605,4.605,0,0,1,.7959-2.8662,2.6448,2.6448,0,0,1,2.2246-1.0381,2.5474,2.5474,0,0,1,2.1445.9141,4.6966,4.6966,0,0,1,.7256,2.8467v.876h-4.5615V36.5a2.9772,2.9772,0,0,0,.4941,1.91,1.7462,1.7462,0,0,0,1.4238.5967,2.31,2.31,0,0,0,1.0381-.2227,2.5739,2.5739,0,0,0,.8418-.7061l.6953.8457A3.0332,3.0332,0,0,1,192.4834,40.1475Zm-.1514-7.3262a1.404,1.404,0,0,0-1.2314.57,3.3892,3.3892,0,0,0-.4531,1.7715h3.2178v-.1816a3.12,3.12,0,0,0-.4189-1.6611A1.2951,1.2951,0,0,0,192.332,32.8213Z"/><path class="a" d="M200.0391,33.0781a3.27,3.27,0,0,0-.6045-.0527A1.4661,1.4661,0,0,0,198,34.15v5.8457h-1.3369V31.8252h1.2988l.0225.83a1.6629,1.6629,0,0,1,1.5176-.9814,1.1829,1.1829,0,0,1,.5293.1055Z"/><path class="a" d="M205.1875,39.9961a2.9508,2.9508,0,0,1-.1738-.8916,2.1212,2.1212,0,0,1-1.8125,1.043,2.3429,2.3429,0,0,1-1.7324-.623,2.3732,2.3732,0,0,1-.623-1.7559,2.4809,2.4809,0,0,1,.8457-1.9785,3.4774,3.4774,0,0,1,2.3184-.748h.9814v-.8682a1.1459,1.1459,0,0,0-1.3135-1.3525,1.3679,1.3679,0,0,0-.9824.3594,1.1993,1.1993,0,0,0-.377.91h-1.3369a2.1622,2.1622,0,0,1,.37-1.1973,2.5789,2.5789,0,0,1,.9971-.8955,2.9937,2.9937,0,0,1,1.3965-.3242,2.6623,2.6623,0,0,1,1.9072.623,2.4361,2.4361,0,0,1,.668,1.8164v4.123a4.971,4.971,0,0,0,.2568,1.6387v.1211Zm-1.7822-1.0645a1.7679,1.7679,0,0,0,.9365-.2725,1.669,1.669,0,0,0,.6494-.68V36.0313h-.7549a2.5259,2.5259,0,0,0-1.5029.4268,1.3557,1.3557,0,0,0-.5518,1.1514,1.4931,1.4931,0,0,0,.28,1.0088A1.2109,1.2109,0,0,0,203.4053,38.9316Z"/><path class="a" d="M209.94,29.8467v1.9785h1.23v1.0791h-1.23v5.0742a1.3821,1.3821,0,0,0,.1582.7334.5957.5957,0,0,0,.5439.25,1.6843,1.6843,0,0,0,.5361-.0908l-.0146,1.126a2.9556,2.9556,0,0,1-.93.15,1.4072,1.4072,0,0,1-1.208-.5664,2.6745,2.6745,0,0,1-.415-1.6016V32.9043h-1.2461V31.8252h1.2461V29.8467Z"/><path class="a" d="M212.2158,35.5332a4.2755,4.2755,0,0,1,.8643-2.8213,2.8246,2.8246,0,0,1,2.2842-1.0381,2.8576,2.8576,0,0,1,2.2852,1.0117,4.1928,4.1928,0,0,1,.8867,2.7568v.86a4.2551,4.2551,0,0,1-.86,2.81,3.0732,3.0732,0,0,1-4.5732.03,4.1635,4.1635,0,0,1-.8867-2.7187Zm1.3359.77a3.4592,3.4592,0,0,0,.4951,1.9824,1.5387,1.5387,0,0,0,1.333.7217q1.7666,0,1.82-2.5527v-.9209a3.4648,3.4648,0,0,0-.499-1.9824,1.5429,1.5429,0,0,0-1.3369-.7295,1.5214,1.5214,0,0,0-1.3174.7295,3.4642,3.4642,0,0,0-.4951,1.9746Z"/><path class="a" d="M223.2939,33.0781a3.27,3.27,0,0,0-.6045-.0527,1.4661,1.4661,0,0,0-1.4346,1.125v5.8457H219.918V31.8252h1.2988l.0225.83a1.6629,1.6629,0,0,1,1.5176-.9814,1.1829,1.1829,0,0,1,.5293.1055Z"/><path class="a" d="M67.4048,25.1582H64.187L53.9907,6.5093V25.1582H50.7725V.9575h3.2183L64.2217,19.69V.9575h3.1831Z"/><path class="a" d="M78.1694,25.49a7.0916,7.0916,0,0,1-5.4214-2.0029,8.3732,8.3732,0,0,1-1.9238-5.875V15.4346A9.7741,9.7741,0,0,1,72.6694,9.127a6.249,6.249,0,0,1,5.15-2.2852,6.04,6.04,0,0,1,4.9668,2.0107q1.6443,2.012,1.6792,6.2666v1.9277H73.9023v.4155a6.3232,6.3232,0,0,0,1.1455,4.2056,4.14,4.14,0,0,0,3.2969,1.313,5.5871,5.5871,0,0,0,2.4048-.49,5.9257,5.9257,0,0,0,1.95-1.5542l1.6094,1.8613Q82.2966,25.49,78.1694,25.49ZM77.82,9.3682a3.3107,3.3107,0,0,0-2.8506,1.2549A7.1647,7.1647,0,0,0,73.92,14.5205h7.45v-.3989a6.6146,6.6146,0,0,0-.9707-3.6567A3.0573,3.0573,0,0,0,77.82,9.3682Z"/><path class="a" d="M101.7856,19.9888l2.8682-12.8149h3.0605L103.08,25.1582h-2.4663l-3.69-12.8647-3.603,12.8647H90.8374l-4.6-17.9844h3.043l2.9385,12.5,3.5151-12.5h2.4487Z"/><path class="a" d="M122.4932,13.1079l5.2109-12.15h3.6211l-7.24,15.1753v9.0254h-3.2007V16.1328L113.644.9575h3.6377Z"/><path class="a" d="M129.8018,15.335a9.0929,9.0929,0,0,1,2.0029-6.208,6.6908,6.6908,0,0,1,5.29-2.2852,6.7715,6.7715,0,0,1,5.291,2.2271,8.9331,8.9331,0,0,1,2.0547,6.0669V17.03a9.0614,9.0614,0,0,1-1.9932,6.1836,7.3713,7.3713,0,0,1-10.59.0664,8.8813,8.8813,0,0,1-2.0557-5.9839Zm3.0957,1.6953a7.3314,7.3314,0,0,0,1.1455,4.3633A3.6155,3.6155,0,0,0,137.13,22.981q4.0928,0,4.2148-5.6182V15.335a7.3348,7.3348,0,0,0-1.1543-4.3628,3.625,3.625,0,0,0-3.0957-1.604,3.5723,3.5723,0,0,0-3.0518,1.604,7.3454,7.3454,0,0,0-1.1455,4.3462Z"/><path class="a" d="M155.3506,9.9331a7.9506,7.9506,0,0,0-1.3984-.1162,3.373,3.373,0,0,0-3.3232,2.4766V25.1582h-3.0957V7.1738h3.0078l.0527,1.8286a3.8709,3.8709,0,0,1,3.5156-2.1606,2.85,2.85,0,0,1,1.2236.2324Z"/><path class="a" d="M163.1855,17.3423l-1.6436,1.7051v6.1108h-3.0957V.9043h3.0957V15.4155l5.8936-7.3423h3.708L165.127,15.21l6.8037,9.9478h-3.6035Z"/><path class="a" d="M184.0078,25.1582h-3.2V.9575h3.2Z"/><path class="a" d="M199.707,19.0415a3.6166,3.6166,0,0,0-1.0322-2.7759,10.757,10.757,0,0,0-3.7246-1.8779,16.4986,16.4986,0,0,1-4.1191-1.92,6.9192,6.9192,0,0,1-2.1338-2.2935,6.0283,6.0283,0,0,1-.708-2.95,6.16,6.16,0,0,1,2.02-4.7373A7.5006,7.5006,0,0,1,195.3.6255a8.219,8.219,0,0,1,3.9873.95A6.6412,6.6412,0,0,1,201.98,4.2178a7.5066,7.5066,0,0,1,.9443,3.7207H199.707A4.9293,4.9293,0,0,0,198.57,4.4648a4.2354,4.2354,0,0,0-3.2705-1.23,4.1507,4.1507,0,0,0-3.0088,1.0322,3.8455,3.8455,0,0,0-1.0664,2.897,3.3016,3.3016,0,0,0,1.1543,2.5645,10.404,10.404,0,0,0,3.5674,1.8481,12.4342,12.4342,0,0,1,5.3779,2.9106,6.3481,6.3481,0,0,1,1.6182,4.521,5.9677,5.9677,0,0,1-2.0117,4.7124,7.995,7.995,0,0,1-5.4736,1.77,9.1835,9.1835,0,0,1-4.1016-.9219A7.21,7.21,0,0,1,188.4,21.9751a6.9143,6.9143,0,0,1-1.0762-3.8311h3.2188a4.5653,4.5653,0,0,0,1.32,3.49,5.022,5.022,0,0,0,3.5938,1.2466,4.4145,4.4145,0,0,0,3.1826-1.03A3.7242,3.7242,0,0,0,199.707,19.0415Z"/><path class="a" d="M223.1289,15.1855q0,4.9534-2.2207,7.6289a7.7424,7.7424,0,0,1-6.3135,2.6758,7.8452,7.8452,0,0,1-6.2178-2.6011q-2.2822-2.6008-2.3691-7.3545V10.98q0-4.8538,2.2559-7.6045A7.6913,7.6913,0,0,1,214.56.6255a7.7953,7.7953,0,0,1,6.27,2.6343q2.2471,2.6345,2.3,7.521Zm-3.2-4.2383a9.9608,9.9608,0,0,0-1.32-5.7095,5.2385,5.2385,0,0,0-8.0449.0249,9.6488,9.6488,0,0,0-1.373,5.5845v4.3384a9.8515,9.8515,0,0,0,1.3555,5.6514,5.2549,5.2549,0,0,0,8.0361.1494,9.6894,9.6894,0,0,0,1.3467-5.5015Z"/><path class="b" d="M22.4578.69l-.0023,9.7273,18.47-.0014A21.7355,21.7355,0,0,0,22.4578.69Z"/><path class="b" d="M41.8107,11.885h-20.1a.7746.7746,0,0,1-.7259-.8391V.775a20.9757,20.9757,0,0,0-9.35,3.0175l-.0229,11.5443h31.73A20.2323,20.2323,0,0,0,41.8107,11.885Z"/><path class="b" d="M44.4914,21.4162a20.99,20.99,0,0,0-.667-4.4537l-33.0079-.007a.8141.8141,0,0,1-.8115-.6858V4.8969A21.4874,21.4874,0,0,0,1.17,21.4133Z"/><path class="b" d="M22.4578,43.6657A21.7354,21.7354,0,0,0,40.9256,33.94l-18.47-.0014Z"/><path class="b" d="M11.6354,40.5635a20.9757,20.9757,0,0,0,9.35,3.0175V33.31a.7746.7746,0,0,1,.7259-.8391h20.1a20.2323,20.2323,0,0,0,1.5316-3.4519h-31.73Z"/><path class="b" d="M10.0051,39.4592V28.0863a.8141.8141,0,0,1,.8115-.6858l33.0079-.007a20.99,20.99,0,0,0,.667-4.4537L1.17,22.9428A21.4874,21.4874,0,0,0,10.0051,39.4592Z"/></svg>